PathFileType	4	(X/Y/Z)	./resultDataOpenSim/trcMotMarkerGrf/sub06/qtm-15-03.trc
DataRate	CameraRate	NumFrames	NumMarkers	Units	OrigDataRate	OrigDataStartFrame	OrigNumFrames
250.000000	250.000000	5	24	m	250.000000	131	521
Frame#	Time	L.Toe.Tip			R.Toe.Tip			L.Ankle.Lat			R.Ankle.Lat			L.Ankle.Med			R.Ankle.Med			L.Heel			R.Heel			L.Knee.Lat			R.Knee.Lat			L.Knee.Med			R.Knee.Med			L.Thigh.Upper			R.Thigh.Upper			L.ASIS			R.ASIS			V.Sacral			L.Acromium			R.Acromium			C7			L.Elbow			R.Elbow			L.Wrist.Lat			R.Wrist.Lat
		X1	Y1	Z1	X2	Y2	Z2	X3	Y3	Z3	X4	Y4	Z4	X5	Y5	Z5	X6	Y6	Z6	X7	Y7	Z7	X8	Y8	Z8	X9	Y9	Z9	X10	Y10	Z10	X11	Y11	Z11	X12	Y12	Z12	X13	Y13	Z13	X14	Y14	Z14	X15	Y15	Z15	X16	Y16	Z16	X17	Y17	Z17	X18	Y18	Z18	X19	Y19	Z19	X20	Y20	Z20	X21	Y21	Z21	X22	Y22	Z22	X23	Y23	Z23	X24	Y24	Z24

131	0.52	-0.085090201	0.12557052	-0.091694385	-0.72651693	0.034853064	0.052680985	-0.21056456	0.098037756	-0.10858864	-0.85847677	0.068693937	0.076489236	-0.21282336	0.11400352	-0.024058245	-0.83486474	0.089072019	-0.0092817832	-0.25572089	0.035669763	-0.057237253	-0.9156519	0.052951694	0.013879774	-0.34110839	0.43988165	-0.11143414	-0.68821573	0.4203044	0.11880582	-0.35980508	0.43263922	0.014602554	-0.71690939	0.425564	-0.011804275	-0.52261922	0.78495514	-0.16060364	-0.59204855	0.77013166	0.18981044	-0.46406671	0.83036397	-0.10431431	-0.48434168	0.82314328	0.14284896	-0.66054644	0.90432309	0.012385031	-0.55550385	1.3139534	-0.17193031	-0.54140189	1.298324	0.19093194	-0.6307204	1.3397008	0.012776253	-0.67232108	1.0276426	-0.22189073	-0.49723129	0.98520127	0.28707272	-0.60859873	0.79804104	-0.27451443	-0.25641328	0.9458348	0.23412339
132	0.524	-0.072752679	0.12888986	-0.090760217	-0.72639219	0.034889158	0.052667542	-0.19783702	0.099481239	-0.10817317	-0.85792429	0.069538307	0.076475952	-0.20068867	0.11520305	-0.023634929	-0.83418442	0.089633725	-0.0092888562	-0.24221778	0.036168521	-0.057079252	-0.91534055	0.054219782	0.013895691	-0.33360273	0.43902679	-0.1108522	-0.68427834	0.41950266	0.11874233	-0.35280251	0.43152458	0.015116204	-0.71243975	0.42481715	-0.011997723	-0.51542491	0.78306916	-0.16068064	-0.5865022	0.76870557	0.19015449	-0.45712896	0.82836387	-0.1041411	-0.47829929	0.82140068	0.14296477	-0.65398393	0.9029132	0.013052402	-0.54898612	1.3121675	-0.17209729	-0.53500093	1.2965364	0.19084877	-0.62439622	1.337987	0.012625127	-0.66701122	1.0265017	-0.2217099	-0.48883897	0.98374297	0.28725239	-0.60502838	0.79668947	-0.2752976	-0.24804717	0.94650835	0.23331537
133	0.528	-0.060931625	0.13182961	-0.08984314	-0.72626513	0.034918475	0.052664336	-0.18559826	0.10068103	-0.10758733	-0.85730323	0.070464283	0.076515777	-0.1889665	0.11631409	-0.023081691	-0.83348451	0.090265115	-0.0092574144	-0.22927198	0.036602067	-0.056733136	-0.91501437	0.055601302	0.013992338	-0.32610507	0.43821435	-0.11035502	-0.68024331	0.41869948	0.11867589	-0.34572194	0.43041922	0.015574771	-0.70785198	0.42405593	-0.012163685	-0.50823829	0.78121696	-0.16072912	-0.5815022	0.767572	0.18976093	-0.45013744	0.82640345	-0.10398459	-0.47222257	0.81969338	0.14307825	-0.64733538	0.90144139	0.013580295	-0.54244155	1.3104053	-0.17228691	-0.52858962	1.2947777	0.1907502	-0.61800332	1.3362991	0.012463466	-0.66158418	1.0253577	-0.22148276	-0.48049642	0.98231282	0.28738254	-0.60135394	0.79534676	-0.27603288	-0.23976312	0.94708469	0.23252648
134	0.532	-0.049620737	0.13435595	-0.088921289	-0.72614082	0.034946665	0.052685336	-0.17386548	0.10160049	-0.10684637	-0.85667292	0.071462083	0.076613816	-0.17771148	0.11727962	-0.022423285	-0.83276386	0.090964592	-0.0091899006	-0.21692173	0.036944239	-0.0562227	-0.91469622	0.057093987	0.014173804	-0.31852536	0.43743961	-0.10990809	-0.6761161	0.41788489	0.11861012	-0.33855007	0.42933461	0.015984753	-0.70314887	0.42328001	-0.012305787	-0.50111148	0.77940271	-0.16074713	-0.57668361	0.76651495	0.18920428	-0.44307129	0.82449281	-0.10383305	-0.46611164	0.81803843	0.14320046	-0.64060343	0.89992506	0.013915295	-0.53586446	1.3086687	-0.17249511	-0.52215945	1.2930542	0.19063781	-0.61155091	1.3346491	0.012281525	-0.6560271	1.0242002	-0.22119089	-0.47221062	0.98090768	0.28747375	-0.59757808	0.79401944	-0.27671833	-0.23155164	0.9475648	0.23176247
135	0.536	-0.038819075	0.13643573	-0.087975655	-0.7260168	0.034978807	0.052729748	-0.1626559	0.10224296	-0.10600545	-0.85609173	0.072520634	0.076768202	-0.16695677	0.11804889	-0.021697941	-0.83200939	0.091735034	-0.0090806811	-0.20519381	0.037171633	-0.055585547	-0.91439833	0.058691406	0.014446776	-0.31084045	0.43669548	-0.10948967	-0.67189726	0.41706	0.11855604	-0.33128131	0.42829009	0.016343862	-0.69833219	0.4224905	-0.012431678	-0.49399762	0.77764159	-0.16076188	-0.57174062	0.76536485	0.18875033	-0.43593221	0.82264457	-0.10367126	-0.45995705	0.81644146	0.14333319	-0.63379535	0.89837976	0.014023909	-0.52924381	1.3069627	-0.17271789	-0.51570028	1.2913768	0.19050864	-0.60504221	1.3330443	0.012073895	-0.6503501	1.0230342	-0.22086551	-0.46399846	0.97953253	0.28753585	-0.59371102	0.79271421	-0.27736047	-0.22341265	0.94795165	0.23102667
